<svg width="190" height="32" viewBox="0 0 190 32" fill="none" xmlns="http://www.w3.org/2000/svg">
<path d="M32.3096 4.27509e-06H156.726V32H32.3096V4.27509e-06Z" fill="white"/>
<path d="M32.854 4.27509e-06V32H0.594009C0.142898 32 -0.759504 30.1936 1.27088 27.3548C3.97801 23.7419 15.2576 3.38294e-06 32.854 4.27509e-06Z" fill="white"/>
<path d="M156.244 32V0H189.406C189.857 0 190.759 1.80645 188.729 4.64516C186.022 8.25806 173.84 32 156.244 32Z" fill="white"/>
<path d="M35.0124 2H154.433V28.7247H35.0124V2Z" fill="#CB1818"/>
<path d="M35.5349 2V28.7247H4.57016C4.13716 28.7247 3.27099 27.2161 5.21985 24.8453C7.81828 21.828 18.645 2 35.5349 2Z" fill="#CB1818"/>
<path d="M153.97 28.7247V2H185.801C186.234 2 187.1 3.50865 185.151 5.8794C182.553 8.89671 170.86 28.7247 153.97 28.7247Z" fill="#CB1818"/>
</svg>
